<svg id="Layer_1" data-name="Layer 1" xmlns="http://www.w3.org/2000/svg" viewBox="0 0 19.53 45.95"><defs><style>.cls-1{fill:#fccc0a;}.cls-2{fill:#fff;}</style></defs><title>GB</title><polygon class="cls-1" points="1.37 10.44 2.22 11.06 1.89 10.06 2.72 9.46 1.69 9.46 1.36 8.48 1.05 9.46 0 9.46 0.85 10.07 0.54 11.04 1.37 10.44"/><polygon class="cls-1" points="2.48 4.21 2.17 5.19 1.13 5.19 1.97 5.81 1.66 6.77 2.49 6.18 3.35 6.8 3.01 5.8 3.84 5.19 2.81 5.19 2.48 4.21"/><polygon class="cls-1" points="5.58 1.16 5.27 2.13 4.22 2.13 5.07 2.75 4.76 3.71 5.59 3.12 6.45 3.74 6.11 2.74 6.94 2.13 5.91 2.13 5.58 1.16"/><polygon class="cls-1" points="19.53 9.46 18.48 9.46 18.17 8.48 17.84 9.46 16.81 9.46 17.64 10.06 17.31 11.06 18.17 10.44 18.99 11.04 18.68 10.07 19.53 9.46"/><polygon class="cls-1" points="16.18 6.8 17.04 6.18 17.86 6.77 17.56 5.81 18.41 5.19 17.36 5.19 17.05 4.21 16.72 5.19 15.69 5.19 16.52 5.8 16.18 6.8"/><polygon class="cls-1" points="13.95 1.16 13.62 2.13 12.59 2.13 13.42 2.74 13.09 3.74 13.94 3.12 14.76 3.71 14.46 2.75 15.31 2.13 14.26 2.13 13.95 1.16"/><polygon class="cls-1" points="9.77 0 9.44 0.97 8.41 0.97 9.24 1.58 8.9 2.58 9.76 1.96 10.58 2.56 10.27 1.59 11.13 0.97 10.08 0.97 9.77 0"/><polygon class="cls-1" points="2.81 13.71 2.48 12.73 2.17 13.71 1.13 13.71 1.97 14.32 1.66 15.29 2.49 14.7 3.35 15.31 3.01 14.31 3.84 13.71 2.81 13.71"/><polygon class="cls-1" points="5.91 16.77 5.58 15.79 5.27 16.77 4.22 16.77 5.07 17.39 4.76 18.35 5.59 17.75 6.45 18.37 6.11 17.37 6.94 16.77 5.91 16.77"/><polygon class="cls-1" points="17.36 13.71 17.05 12.73 16.72 13.71 15.69 13.71 16.52 14.31 16.18 15.31 17.04 14.7 17.86 15.29 17.56 14.32 18.41 13.71 17.36 13.71"/><polygon class="cls-1" points="14.26 16.77 13.95 15.79 13.62 16.77 12.59 16.77 13.42 17.37 13.09 18.37 13.94 17.75 14.76 18.35 14.46 17.39 15.31 16.77 14.26 16.77"/><polygon class="cls-1" points="10.08 17.93 9.77 16.96 9.44 17.93 8.41 17.93 9.24 18.54 8.9 19.54 9.76 18.92 10.58 19.52 10.27 18.55 11.13 17.93 10.08 17.93"/><path class="cls-2" d="M9.93,56.89a3.09,3.09,0,0,1-1.25.27,4.42,4.42,0,0,1-1.78-.35,3.68,3.68,0,0,1-1.33-1,4.11,4.11,0,0,1-.84-1.42,5.28,5.28,0,0,1-.29-1.76,5.46,5.46,0,0,1,.29-1.79,4.45,4.45,0,0,1,.84-1.45,3.7,3.7,0,0,1,1.33-1,4.42,4.42,0,0,1,1.78-.35,4,4,0,0,1,1.29.2,3.56,3.56,0,0,1,1.13.58,3.23,3.23,0,0,1,1.22,2.26H10.51a1.8,1.8,0,0,0-.65-1.08,1.89,1.89,0,0,0-1.18-.37A2.27,2.27,0,0,0,7.6,50a2,2,0,0,0-.73.67,2.84,2.84,0,0,0-.4.94,4.48,4.48,0,0,0-.13,1.1,4.11,4.11,0,0,0,.13,1.06,3,3,0,0,0,.4.93,2.08,2.08,0,0,0,.73.65,2.16,2.16,0,0,0,1.08.25,2.06,2.06,0,0,0,1.46-.48,2.09,2.09,0,0,0,.6-1.38H8.83V52.3h3.62V57h-1.2l-.2-1A2.71,2.71,0,0,1,9.93,56.89Z" transform="translate(-2.54 -11.2)"/><path class="cls-2" d="M18.05,48.33a5.45,5.45,0,0,1,1.12.11,2.28,2.28,0,0,1,.87.36,1.6,1.6,0,0,1,.57.66,2.33,2.33,0,0,1,.2,1,1.87,1.87,0,0,1-.3,1.09,2.11,2.11,0,0,1-.88.71,2,2,0,0,1,1.19.81,2.32,2.32,0,0,1,.4,1.38A2.39,2.39,0,0,1,21,55.59a2.14,2.14,0,0,1-.68.78,3.14,3.14,0,0,1-1,.45,4.66,4.66,0,0,1-1.13.14H14V48.33Zm-.24,3.5a1.36,1.36,0,0,0,.83-.25A.9.9,0,0,0,19,50.8a1.06,1.06,0,0,0-.11-.5.76.76,0,0,0-.29-.3,1.3,1.3,0,0,0-.42-.15,2.63,2.63,0,0,0-.49,0H15.89v2Zm.11,3.66a2.33,2.33,0,0,0,.53-.06,1.12,1.12,0,0,0,.45-.18.83.83,0,0,0,.3-.34,1.16,1.16,0,0,0,.12-.56,1.12,1.12,0,0,0-.38-1,1.54,1.54,0,0,0-1-.28H15.89v2.37Z" transform="translate(-2.54 -11.2)"/></svg>